<?xml version="1.0"?>
<svg xmlns:rdf="http://www.w3.org/1999/02/22-rdf-syntax-ns#" xmlns="http://www.w3.org/2000/svg" xmlns:cc="http://creativecommons.org/ns#" xmlns:dc="http://purl.org/dc/elements/1.1/" xmlns:svg="http://www.w3.org/2000/svg" id="svg2" viewBox="0 0 2140.9 1475.7" version="1.1">
  <defs id="defs4">
    <filter id="filter4622" color-interpolation-filters="sRGB">
      <feGaussianBlur id="feGaussianBlur4624" stdDeviation="21.621016"/>
    </filter>
  </defs>
  <g id="g3791" filter="url(#filter4622)" transform="translate(424.33 279.26)" fill-rule="evenodd">
    <path id="path3781" style="color:#000000" d="m638.73 56.696-192.57 9.383-197.25 152.65l2.3355 277.09 155 155-18.781 75.125-51.656 89.25 138.56 61.062-18.812-122.12 57.969 55.844 7.7812 35.75 28.188 4.6875 18.875-33.219 56.25 7.4062-21.125 54 140.88-23.469-44.594-84.562 117.41 9.4062-32.875 86.875 138.56-30.5-82.188-204.31 192.56-152.66 11.719-340.5zm73.7 397.68-6.54-79.76 199.73-124.54 45.87 140.82-238.6 63.3zm-346.09-155.82 159.66 54-11.72 131.53-185.53-124.47zm239.5 208.99 56.375-9.3976 44.603 110.39-159.67-11.755 58.692-49.316z"/>
    <path id="path3783" style="color:#000000" d="m998.02 113.05 164.38-152.64 21.134-122.11 84.538-16.438 37.572 105.67 96.279 77.493-98.627 63.403-72.796-46.965-169.08 152.64-7.0448-46.965z"/>
    <path id="path3785" style="color:#000000" d="m352.24 624.98 30.528 25.831 2.3483 44.617-211.34 209v110.37l-84.538 37.572-44.617-108.02-70.448-32.876 39.921-98.627 72.796 14.09 2.3483 37.572z"/>
    <path id="path3787" style="color:#000000" d="m896.52 608.1 265.35 241.87-9.3931 96.279 75.145 68.1 44.617-54.01-4.6966-61.055 84.538-18.786-2.3483-96.279-84.538-16.438-21.134 35.224-288.84-241.87z"/>
    <path id="path3789" style="color:#000000" d="m335.8 129.49-56.36 46.97-208.99-157.34-100.98 30.53-79.84-100.98l93.931-39.921 58.707 46.965 18.786-98.627 65.752-32.876 28.179 44.617 23.483 56.359-21.134 46.965z"/>
  </g>
  <g id="g4695" fill="#fff" fill-rule="evenodd">
    <path id="path3713" style="color:#000000" d="m1061.1 333.95-192.56 9.3836-197.25 152.65 2.3355 277.09 155 155-18.781 75.125-51.656 89.25 138.56 61.062-18.812-122.12 57.969 55.844 7.7812 35.75 28.188 4.6875 18.875-33.219 56.25 7.4063-21.125 54 140.88-23.469-44.594-84.562 117.41 9.4063-32.875 86.875 138.56-30.5-82.188-204.31 192.56-152.66 11.719-340.5zm73.708 397.68-6.5387-79.754 199.73-124.55 45.864 140.82-238.6 63.3zm-346.09-155.82 159.66 54-11.719 131.53-185.53-124.47zm239.5 208.99 56.375-9.3976 44.603 110.39-159.67-11.754 58.692-49.316z"/>
    <path id="path3728" style="color:#000000" d="m1420.3 390.31 164.38-152.64 21.134-122.11 84.538-16.438 37.572 105.67 96.279 77.493-98.627 63.403-72.796-46.965-169.08 152.64-7.0448-46.965z"/>
    <path id="path3730" style="color:#000000" d="m774.57 902.23 30.528 25.831 2.3483 44.617-211.34 209v110.37l-84.538 37.572-44.617-108.02-70.448-32.876 39.921-98.627 72.796 14.09 2.3483 37.572z"/>
    <path id="path3732" style="color:#000000" d="m1318.9 885.36 265.35 241.87-9.3931 96.279 75.145 68.1 44.617-54.01-4.6966-61.055 84.538-18.786-2.3483-96.279-84.538-16.438-21.134 35.224-288.84-241.87z"/>
    <path id="path3734" style="color:#000000" d="m758.13 406.75-56.359 46.965-209-157.33-100.98 30.528-79.841-100.98 93.931-39.921 58.707 46.965 18.786-98.627 65.752-32.876 28.179 44.617 23.483 56.358-21.134 46.965z"/>
  </g>
  <metadata>
    <rdf:RDF>
      <cc:Work>
        <dc:format>image/svg+xml</dc:format>
        <dc:type rdf:resource="http://purl.org/dc/dcmitype/StillImage"/>
        <cc:license rdf:resource="http://creativecommons.org/licenses/publicdomain/"/>
        <dc:publisher>
          <cc:Agent rdf:about="http://openclipart.org/">
            <dc:title>Openclipart</dc:title>
          </cc:Agent>
        </dc:publisher>
        <dc:title>White skull 'n white bones!</dc:title>
        <dc:date>2012-05-11T07:28:47</dc:date>
        <dc:description>clip art, clipart, death, scary, skull, white, </dc:description>
        <dc:source>http://openclipart.org/detail/169982/white-skull-n-white-bones!-by-scyg</dc:source>
        <dc:creator>
          <cc:Agent>
            <dc:title>scyg</dc:title>
          </cc:Agent>
        </dc:creator>
        <dc:subject>
          <rdf:Bag>
            <rdf:li>clip art</rdf:li>
            <rdf:li>clipart</rdf:li>
            <rdf:li>death</rdf:li>
            <rdf:li>scary</rdf:li>
            <rdf:li>skull</rdf:li>
            <rdf:li>white</rdf:li>
          </rdf:Bag>
        </dc:subject>
      </cc:Work>
      <cc:License rdf:about="http://creativecommons.org/licenses/publicdomain/">
        <cc:permits rdf:resource="http://creativecommons.org/ns#Reproduction"/>
        <cc:permits rdf:resource="http://creativecommons.org/ns#Distribution"/>
        <cc:permits rdf:resource="http://creativecommons.org/ns#DerivativeWorks"/>
      </cc:License>
    </rdf:RDF>
  </metadata>
</svg>
